<mxfile host="app.diagrams.net" modified="2021-06-21T07:25:59.154Z" agent="5.0 (X11)" etag="GbZuF7dG2ZKJQqXdGgUw" version="14.7.3" type="github">
  <diagram name="Page-1" id="e7e014a7-5840-1c2e-5031-d8a46d1fe8dd">
    <mxGraphModel dx="674" dy="1739" grid="1" gridSize="10" guides="1" tooltips="1" connect="1" arrows="1" fold="1" page="1" pageScale="1" pageWidth="1169" pageHeight="826" background="none" math="0" shadow="0">
      <root>
        <mxCell id="0" />
        <mxCell id="1" parent="0" />
        <mxCell id="20" value="" style="endArrow=open;strokeColor=#FF0000;endFill=1;rounded=0" parent="1" edge="1">
          <mxGeometry relative="1" as="geometry">
            <mxPoint x="330" y="692.2916666666665" as="sourcePoint" />
            <mxPoint x="460" y="697.7083333333335" as="targetPoint" />
          </mxGeometry>
        </mxCell>
        <mxCell id="U5sJHbtddnW6i3F2b5jH-41" value="SHACL Query" style="fillColor=#d5e8d4;strokeColor=#82b366;" vertex="1" parent="1">
          <mxGeometry x="360" y="-230" width="160" height="60" as="geometry" />
        </mxCell>
        <mxCell id="U5sJHbtddnW6i3F2b5jH-42" value="" style="edgeStyle=elbowEdgeStyle;elbow=horizontal;verticalAlign=bottom;endArrow=open;endSize=8;strokeColor=#FF0000;endFill=1;rounded=0;entryX=0;entryY=0.5;entryDx=0;entryDy=0;" edge="1" parent="1" target="U5sJHbtddnW6i3F2b5jH-41">
          <mxGeometry x="140.5" y="-378" as="geometry">
            <mxPoint x="320.5" y="-180" as="targetPoint" />
            <mxPoint x="280" y="-200" as="sourcePoint" />
            <Array as="points">
              <mxPoint x="340" y="-200" />
              <mxPoint x="330" y="-190" />
            </Array>
          </mxGeometry>
        </mxCell>
        <mxCell id="U5sJHbtddnW6i3F2b5jH-43" value="" style="ellipse;shape=startState;fillColor=#000000;strokeColor=#ff0000;" vertex="1" parent="1">
          <mxGeometry x="266" y="-215" width="30" height="30" as="geometry" />
        </mxCell>
        <mxCell id="U5sJHbtddnW6i3F2b5jH-45" value="Any supported Comuinca Source(s) &#xa;(SHACL Repos/Local files/Triple Fragments etc.)" style="rhombus;fillColor=#ffffc0;strokeColor=#ff0000;" vertex="1" parent="1">
          <mxGeometry x="240" y="-480" width="400" height="113" as="geometry" />
        </mxCell>
        <mxCell id="U5sJHbtddnW6i3F2b5jH-46" value="" style="edgeStyle=elbowEdgeStyle;elbow=horizontal;verticalAlign=bottom;endArrow=open;endSize=8;strokeColor=#FF0000;endFill=1;rounded=0;entryX=0;entryY=0.5;entryDx=0;entryDy=0;" edge="1" parent="1">
          <mxGeometry x="140.5" y="-408" as="geometry">
            <mxPoint x="360" y="-230" as="targetPoint" />
            <mxPoint x="280" y="-230" as="sourcePoint" />
          </mxGeometry>
        </mxCell>
        <mxCell id="U5sJHbtddnW6i3F2b5jH-47" value="" style="ellipse;shape=startState;fillColor=#000000;strokeColor=#ff0000;" vertex="1" parent="1">
          <mxGeometry x="266" y="-245" width="30" height="30" as="geometry" />
        </mxCell>
        <mxCell id="U5sJHbtddnW6i3F2b5jH-48" value="NodeShape Shape" style="edgeStyle=elbowEdgeStyle;elbow=horizontal;align=left;verticalAlign=top;endArrow=open;endSize=8;strokeColor=#FF0000;endFill=1;rounded=0" edge="1" parent="1">
          <mxGeometry x="-1" y="-737" relative="1" as="geometry">
            <mxPoint x="600" y="446" as="targetPoint" />
            <mxPoint x="600" y="385.75" as="sourcePoint" />
            <mxPoint x="385" y="-648" as="offset" />
          </mxGeometry>
        </mxCell>
        <mxCell id="U5sJHbtddnW6i3F2b5jH-49" value="" style="edgeStyle=elbowEdgeStyle;elbow=horizontal;verticalAlign=bottom;endArrow=classic;endSize=8;strokeColor=#FF0000;endFill=1;rounded=0;startArrow=classic;startFill=1;" edge="1" parent="1">
          <mxGeometry x="-40" y="-448" as="geometry">
            <mxPoint x="440" y="-230" as="targetPoint" />
            <mxPoint x="439.5" y="-270" as="sourcePoint" />
            <Array as="points">
              <mxPoint x="440" y="-410" />
            </Array>
          </mxGeometry>
        </mxCell>
        <mxCell id="U5sJHbtddnW6i3F2b5jH-50" value="Comunica" style="" vertex="1" parent="1">
          <mxGeometry x="360" y="-330" width="160" height="60" as="geometry" />
        </mxCell>
        <mxCell id="U5sJHbtddnW6i3F2b5jH-51" value="" style="endArrow=classic;strokeColor=#FF0000;endFill=1;rounded=0;dashed=1;entryX=0.5;entryY=0;entryDx=0;entryDy=0;startArrow=classic;startFill=1;" edge="1" parent="1" source="U5sJHbtddnW6i3F2b5jH-45" target="U5sJHbtddnW6i3F2b5jH-50">
          <mxGeometry relative="1" as="geometry">
            <mxPoint x="520.001212121212" y="-385" as="sourcePoint" />
            <mxPoint x="575.7587878787878" y="-270" as="targetPoint" />
          </mxGeometry>
        </mxCell>
        <mxCell id="U5sJHbtddnW6i3F2b5jH-52" value="" style="endArrow=classic;strokeColor=#FF0000;endFill=1;rounded=0;dashed=1;entryX=1;entryY=0;entryDx=0;entryDy=0;startArrow=classic;startFill=1;exitX=0.703;exitY=0.805;exitDx=0;exitDy=0;exitPerimeter=0;" edge="1" parent="1" source="U5sJHbtddnW6i3F2b5jH-45" target="U5sJHbtddnW6i3F2b5jH-50">
          <mxGeometry relative="1" as="geometry">
            <mxPoint x="520" y="-380" as="sourcePoint" />
            <mxPoint x="450" y="-320" as="targetPoint" />
          </mxGeometry>
        </mxCell>
        <mxCell id="U5sJHbtddnW6i3F2b5jH-53" value="" style="endArrow=classic;strokeColor=#FF0000;endFill=1;rounded=0;dashed=1;entryX=1;entryY=0;entryDx=0;entryDy=0;startArrow=classic;startFill=1;exitX=0.703;exitY=0.805;exitDx=0;exitDy=0;exitPerimeter=0;" edge="1" parent="1">
          <mxGeometry relative="1" as="geometry">
            <mxPoint x="361.20000000000005" y="-389.99500000000006" as="sourcePoint" />
            <mxPoint x="360" y="-330.96" as="targetPoint" />
          </mxGeometry>
        </mxCell>
        <mxCell id="U5sJHbtddnW6i3F2b5jH-54" value="" style="edgeStyle=elbowEdgeStyle;elbow=horizontal;verticalAlign=bottom;endArrow=open;endSize=8;strokeColor=#FF0000;endFill=1;rounded=0" edge="1" parent="1">
          <mxGeometry x="260" y="-328" as="geometry">
            <mxPoint x="440" y="-130" as="targetPoint" />
            <mxPoint x="439.5" y="-170" as="sourcePoint" />
          </mxGeometry>
        </mxCell>
        <mxCell id="U5sJHbtddnW6i3F2b5jH-55" value="CONSTRUCT QUERIES" style="edgeStyle=elbowEdgeStyle;elbow=horizontal;align=left;verticalAlign=top;endArrow=open;endSize=8;strokeColor=#FF0000;endFill=1;rounded=0" edge="1" parent="1">
          <mxGeometry x="-1" y="-680" relative="1" as="geometry">
            <mxPoint x="612" y="458" as="targetPoint" />
            <mxPoint x="612" y="397.75" as="sourcePoint" />
            <mxPoint x="508" y="-658" as="offset" />
          </mxGeometry>
        </mxCell>
        <mxCell id="U5sJHbtddnW6i3F2b5jH-56" value="SHACL Constraints (sets of Quads with skolemized blank nodes)" style="edgeStyle=elbowEdgeStyle;elbow=horizontal;align=left;verticalAlign=top;endArrow=open;endSize=8;strokeColor=#FF0000;endFill=1;rounded=0" edge="1" parent="1">
          <mxGeometry x="-1" y="-596" relative="1" as="geometry">
            <mxPoint x="622" y="468" as="targetPoint" />
            <mxPoint x="622" y="407.75" as="sourcePoint" />
            <mxPoint x="414" y="-568" as="offset" />
          </mxGeometry>
        </mxCell>
        <mxCell id="U5sJHbtddnW6i3F2b5jH-57" value="Merge SHACL" style="fillColor=#d5e8d4;strokeColor=#82b366;" vertex="1" parent="1">
          <mxGeometry x="360" y="-130" width="160" height="60" as="geometry" />
        </mxCell>
        <mxCell id="U5sJHbtddnW6i3F2b5jH-58" value="" style="edgeStyle=elbowEdgeStyle;elbow=horizontal;verticalAlign=bottom;endArrow=open;endSize=8;strokeColor=#FF0000;endFill=1;rounded=0" edge="1" parent="1">
          <mxGeometry x="260" y="-228" as="geometry">
            <mxPoint x="440" y="-30" as="targetPoint" />
            <mxPoint x="439.5" y="-70" as="sourcePoint" />
          </mxGeometry>
        </mxCell>
        <mxCell id="U5sJHbtddnW6i3F2b5jH-59" value="Single SHACL constraint" style="edgeStyle=elbowEdgeStyle;elbow=horizontal;align=left;verticalAlign=top;endArrow=open;endSize=8;strokeColor=#FF0000;endFill=1;rounded=0" edge="1" parent="1">
          <mxGeometry x="-1" y="-515" relative="1" as="geometry">
            <mxPoint x="632" y="478" as="targetPoint" />
            <mxPoint x="632" y="417.75" as="sourcePoint" />
            <mxPoint x="323" y="-478" as="offset" />
          </mxGeometry>
        </mxCell>
        <mxCell id="U5sJHbtddnW6i3F2b5jH-60" value="SPARQL Inferenced" style="fillColor=#d5e8d4;strokeColor=#82b366;" vertex="1" parent="1">
          <mxGeometry x="360" y="-30" width="160" height="60" as="geometry" />
        </mxCell>
        <mxCell id="U5sJHbtddnW6i3F2b5jH-61" value="Hylar (core)" style="fillColor=#d5e8d4;strokeColor=#82b366;" vertex="1" parent="1">
          <mxGeometry x="160" y="-60" width="160" height="60" as="geometry" />
        </mxCell>
        <mxCell id="U5sJHbtddnW6i3F2b5jH-62" value="Comunica" style="" vertex="1" parent="1">
          <mxGeometry x="160" width="160" height="60" as="geometry" />
        </mxCell>
        <mxCell id="U5sJHbtddnW6i3F2b5jH-63" value="SHACLCjs actor" style="fillColor=#d5e8d4;strokeColor=#82b366;" vertex="1" parent="1">
          <mxGeometry x="550" y="-330" width="160" height="60" as="geometry" />
        </mxCell>
        <mxCell id="U5sJHbtddnW6i3F2b5jH-64" value="" style="endArrow=classic;strokeColor=#FF0000;endFill=1;rounded=0;dashed=1;entryX=1;entryY=0.5;entryDx=0;entryDy=0;startArrow=classic;startFill=1;exitX=0;exitY=0.5;exitDx=0;exitDy=0;" edge="1" parent="1" source="U5sJHbtddnW6i3F2b5jH-63" target="U5sJHbtddnW6i3F2b5jH-50">
          <mxGeometry relative="1" as="geometry">
            <mxPoint x="531.2" y="-379.0350000000001" as="sourcePoint" />
            <mxPoint x="530" y="-320" as="targetPoint" />
          </mxGeometry>
        </mxCell>
        <mxCell id="U5sJHbtddnW6i3F2b5jH-65" value="" style="edgeStyle=elbowEdgeStyle;elbow=horizontal;verticalAlign=bottom;endArrow=classic;endSize=8;strokeColor=#FF0000;endFill=1;rounded=0;startArrow=classic;startFill=1;" edge="1" parent="1" source="U5sJHbtddnW6i3F2b5jH-61">
          <mxGeometry x="-120.5" y="-228" as="geometry">
            <mxPoint x="359.5" y="-10" as="targetPoint" />
            <mxPoint x="359" y="-50" as="sourcePoint" />
            <Array as="points" />
          </mxGeometry>
        </mxCell>
        <mxCell id="U5sJHbtddnW6i3F2b5jH-66" value="" style="edgeStyle=elbowEdgeStyle;elbow=horizontal;verticalAlign=bottom;endArrow=classic;endSize=8;strokeColor=#FF0000;endFill=1;rounded=0;startArrow=classic;startFill=1;exitX=1;exitY=0.5;exitDx=0;exitDy=0;entryX=0;entryY=0.75;entryDx=0;entryDy=0;" edge="1" parent="1" source="U5sJHbtddnW6i3F2b5jH-62" target="U5sJHbtddnW6i3F2b5jH-60">
          <mxGeometry x="-110.5" y="-218" as="geometry">
            <mxPoint x="369.5" as="targetPoint" />
            <mxPoint x="330" y="-20" as="sourcePoint" />
            <Array as="points" />
          </mxGeometry>
        </mxCell>
        <mxCell id="U5sJHbtddnW6i3F2b5jH-67" value="SHACL IRI&#39;s" style="edgeStyle=elbowEdgeStyle;elbow=horizontal;align=left;verticalAlign=top;endArrow=open;endSize=8;strokeColor=#FF0000;endFill=1;rounded=0" edge="1" parent="1">
          <mxGeometry x="-1" y="-718" relative="1" as="geometry">
            <mxPoint x="632" y="478" as="targetPoint" />
            <mxPoint x="632" y="417.75" as="sourcePoint" />
            <mxPoint x="336" y="-608" as="offset" />
          </mxGeometry>
        </mxCell>
        <mxCell id="U5sJHbtddnW6i3F2b5jH-68" value="RDF Object Proxy" style="fillColor=#d5e8d4;strokeColor=#82b366;" vertex="1" parent="1">
          <mxGeometry x="360" y="80" width="160" height="60" as="geometry" />
        </mxCell>
        <mxCell id="U5sJHbtddnW6i3F2b5jH-69" value="" style="edgeStyle=elbowEdgeStyle;elbow=horizontal;verticalAlign=bottom;endArrow=open;endSize=8;strokeColor=#FF0000;endFill=1;rounded=0;entryX=0.5;entryY=0;entryDx=0;entryDy=0;" edge="1" parent="1" target="U5sJHbtddnW6i3F2b5jH-68">
          <mxGeometry x="259.5" y="-128" as="geometry">
            <mxPoint x="440" y="60" as="targetPoint" />
            <mxPoint x="439" y="30" as="sourcePoint" />
          </mxGeometry>
        </mxCell>
        <mxCell id="U5sJHbtddnW6i3F2b5jH-70" value="Single SHACL constraint with inferenced value (as a set of quads)" style="edgeStyle=elbowEdgeStyle;elbow=horizontal;align=left;verticalAlign=top;endArrow=open;endSize=8;strokeColor=#FF0000;endFill=1;rounded=0" edge="1" parent="1">
          <mxGeometry x="-1" y="-437" relative="1" as="geometry">
            <mxPoint x="642" y="488" as="targetPoint" />
            <mxPoint x="642" y="427.75" as="sourcePoint" />
            <mxPoint x="235" y="-388" as="offset" />
          </mxGeometry>
        </mxCell>
        <mxCell id="U5sJHbtddnW6i3F2b5jH-72" value="" style="edgeStyle=elbowEdgeStyle;elbow=horizontal;verticalAlign=bottom;endArrow=open;endSize=8;strokeColor=#FF0000;endFill=1;rounded=0;entryX=0.5;entryY=0;entryDx=0;entryDy=0;" edge="1" parent="1">
          <mxGeometry x="259.5" y="-18" as="geometry">
            <mxPoint x="440" y="190" as="targetPoint" />
            <mxPoint x="439" y="140" as="sourcePoint" />
          </mxGeometry>
        </mxCell>
        <mxCell id="U5sJHbtddnW6i3F2b5jH-73" value="Single SHACL constraint with inferenced value (as a set of quads)" style="edgeStyle=elbowEdgeStyle;elbow=horizontal;align=left;verticalAlign=top;endArrow=open;endSize=8;strokeColor=#FF0000;endFill=1;rounded=0" edge="1" parent="1">
          <mxGeometry x="-1" y="-357" relative="1" as="geometry">
            <mxPoint x="652" y="498" as="targetPoint" />
            <mxPoint x="652" y="437.75" as="sourcePoint" />
            <mxPoint x="145" y="-288" as="offset" />
          </mxGeometry>
        </mxCell>
      </root>
    </mxGraphModel>
  </diagram>
</mxfile>
